<svg width="21" height="21" viewBox="0 0 21 21" fill="none" xmlns="http://www.w3.org/2000/svg">
<path d="M12.5396 4.98069C13.3999 5.14855 14.1907 5.56934 14.8105 6.1892C15.4304 6.80906 15.8512 7.59979 16.019 8.46018M12.5396 1.45715C14.3271 1.65574 15.994 2.45623 17.2666 3.7272C18.5392 4.99816 19.3417 6.66406 19.5426 8.45137M18.6617 15.4808V18.1235C18.6627 18.3688 18.6124 18.6116 18.5142 18.8364C18.4159 19.0612 18.2717 19.263 18.0909 19.4288C17.9102 19.5947 17.6968 19.7209 17.4644 19.7995C17.232 19.8781 16.9857 19.9073 16.7414 19.8852C14.0307 19.5907 11.427 18.6645 9.13934 17.1809C7.01098 15.8285 5.20649 14.024 3.85404 11.8956C2.36533 9.59758 1.43887 6.98117 1.14973 4.25836C1.12772 4.01477 1.15666 3.76926 1.23473 3.53747C1.3128 3.30568 1.43828 3.09268 1.60318 2.91204C1.76807 2.7314 1.96878 2.58707 2.19251 2.48825C2.41624 2.38942 2.6581 2.33827 2.90269 2.33804H5.54534C5.97284 2.33383 6.38728 2.48521 6.71142 2.76397C7.03556 3.04273 7.24727 3.42985 7.3071 3.85316C7.41864 4.69886 7.6255 5.52924 7.92372 6.32844C8.04224 6.64373 8.06789 6.98638 7.99763 7.3158C7.92738 7.64522 7.76416 7.9476 7.52733 8.1871L6.4086 9.30583C7.66259 11.5112 9.48857 13.3371 11.6939 14.5911L12.8126 13.4724C13.0521 13.2356 13.3545 13.0724 13.6839 13.0021C14.0133 12.9318 14.356 12.9575 14.6713 13.076C15.4705 13.3742 16.3009 13.5811 17.1466 13.6926C17.5745 13.753 17.9653 13.9685 18.2446 14.2982C18.524 14.6279 18.6724 15.0488 18.6617 15.4808Z" stroke="white" stroke-linecap="round" stroke-linejoin="round"/>
</svg>
