<svg width="24" height="20" viewBox="0 0 24 20" fill="none" xmlns="http://www.w3.org/2000/svg">
<path fill-rule="evenodd" clip-rule="evenodd" d="M11.6667 14.5139C9.15122 14.5139 7.11382 12.4888 7.11382 9.99996C7.11382 7.49976 9.15122 5.47471 11.6667 5.47471C14.1707 5.47471 16.2081 7.49976 16.2081 9.99996C16.2081 12.4888 14.1707 14.5139 11.6667 14.5139ZM23.265 9.66056C22.0472 6.84359 20.3512 4.59228 18.3594 3.0537C16.3675 1.5038 14.0797 0.666626 11.6667 0.666626H11.6553C6.84065 0.666626 2.50407 4.02663 0.0682927 9.66056C-0.0227642 9.87551 -0.0227642 10.1244 0.0682927 10.328C2.50407 15.962 6.84065 19.3333 11.6553 19.3333H11.6667C16.4927 19.3333 20.8293 15.962 23.265 10.328C23.3561 10.1244 23.3561 9.87551 23.265 9.66056Z" fill="#130F26"/>
</svg>
