<svg width="24" height="44" viewBox="0 0 24 44" fill="none" xmlns="http://www.w3.org/2000/svg">
<path d="M15.3892 44H7.27679V23.968H0.5V16.1204H7.27679V10.3379C7.18792 8.94062 7.38852 7.53998 7.86587 6.22469C8.34323 4.90939 9.08694 3.70809 10.0499 2.69685C11.0447 1.78029 12.2102 1.07111 13.4791 0.610293C14.7481 0.14948 16.0952 -0.0538215 17.4428 0.0121409C19.4663 -0.0115776 21.4894 0.0921587 23.5 0.322741V7.24019L19.291 7.34428C18.7417 7.27852 18.1848 7.327 17.6549 7.48672C17.125 7.64645 16.6334 7.914 16.2106 8.27277C15.6061 9.06964 15.3137 10.0621 15.3892 11.0616V16.1204H23.1928L22.166 23.968H15.3892V44Z" fill="#395185"/>
</svg>
