<svg width="26" height="26" viewBox="0 0 26 26" fill="none" xmlns="http://www.w3.org/2000/svg">
<path fill-rule="evenodd" clip-rule="evenodd" d="M10.7536 0.122013C5.96165 1.04432 2.15542 4.34209 0.638549 8.88585C-0.418499 12.0523 -0.150153 15.8091 1.34681 18.8008C2.17671 20.4593 3.75492 22.33 5.27766 23.4601C7.49406 25.1048 10.2521 26.0066 13.0465 26C14.3305 25.997 15.0116 25.8789 15.2767 25.6134C15.5291 25.3608 15.4961 24.7663 15.2142 24.484C14.9947 24.2641 14.8256 24.2436 13.0375 24.22C10.7559 24.1899 9.93611 24.009 8.10693 23.1322C6.70559 22.4605 5.78881 21.7794 4.68654 20.5912C1.26454 16.9021 0.74407 11.3043 3.42179 6.98974C4.49092 5.26704 6.53931 3.46726 8.33707 2.6709C9.70907 2.0633 10.8916 1.78882 12.4221 1.72256C14.1496 1.64789 15.1808 1.78974 16.7099 2.31242C19.6553 3.31896 22.254 5.77763 23.4326 8.67268C24.8397 12.1288 24.4656 16.0869 22.4413 19.164C21.5929 20.4537 20.0501 21.9368 18.742 22.7205C17.6496 23.3749 17.4226 23.7161 17.7228 24.2518C17.9787 24.7083 18.4223 24.8246 18.9514 24.5739C19.8277 24.1585 21.2914 23.0939 22.1315 22.2606C24.6462 19.7669 25.999 16.5019 26 12.9241C26.0015 7.06763 21.9913 1.88481 16.277 0.358121C15.323 0.103231 14.8215 0.0435415 13.3427 0.00885717C12.1579 -0.0190285 11.2887 0.0189968 10.7536 0.122013ZM6.90317 10.0075C6.70053 10.2252 6.66854 10.4118 6.66854 11.3747C6.66854 12.3282 6.70306 12.5337 6.90708 12.7933C7.21881 13.1903 7.72777 13.199 8.11211 12.814C8.37206 12.5539 8.39461 12.4445 8.39461 11.4468C8.39461 10.5243 8.35905 10.3172 8.15607 10.0589C7.84802 9.66665 7.24332 9.64187 6.90317 10.0075ZM17.8305 9.98572C17.63 10.1865 17.6003 10.3698 17.6003 11.406C17.6003 12.5007 17.6216 12.6159 17.8666 12.8464C18.1954 13.1556 18.6385 13.1675 18.9972 12.8768C19.2437 12.6772 19.2725 12.5512 19.3075 11.5222C19.3424 10.5011 19.3214 10.3561 19.0978 10.0715C18.789 9.6784 18.1786 9.63715 17.8305 9.98572ZM6.90708 16.0509C6.59063 16.4536 6.60582 16.8472 6.95104 17.1928L7.23342 17.4757H12.8717C16.8172 17.4757 18.5957 17.4366 18.7954 17.3455C19.3792 17.0792 19.4311 16.1653 18.8793 15.8695C18.7271 15.788 16.7333 15.7472 12.8983 15.7472H7.14551L6.90708 16.0509Z" fill="white"/>
</svg>
