<svg width="38" height="38" viewBox="0 0 38 38" fill="none" xmlns="http://www.w3.org/2000/svg">
<path d="M37.1215 15.3778H35.6304V15.3001H18.981V22.6998H29.4368C28.645 24.943 27.1535 26.8724 25.1822 28.2037C23.2109 29.535 20.864 30.1978 18.4874 30.0944C16.1109 29.9909 13.8305 29.1267 11.9823 27.6292C10.1341 26.1316 8.81588 24.0799 8.22198 21.7764C7.62808 19.473 7.7899 17.0397 8.6836 14.8351C9.57729 12.6306 11.1556 10.7715 13.1858 9.53189C15.2161 8.29225 17.5908 7.73764 19.9601 7.94981C22.3294 8.16198 24.5679 9.12971 26.3456 10.7104L31.5772 5.47872C28.4654 2.58812 24.4528 0.857581 20.2148 0.578288C15.9767 0.298994 11.7717 1.48799 8.30746 3.94522C4.84317 6.40245 2.33098 9.97793 1.19357 14.0701C0.0561681 18.1622 0.362974 22.5212 2.06237 26.4137C3.76176 30.3062 6.75002 33.4945 10.5243 35.4422C14.2987 37.39 18.6287 37.9783 22.7859 37.1081C26.943 36.2379 30.6736 33.9624 33.3499 30.6644C36.0262 27.3664 37.4848 23.2472 37.4804 18.9999C37.4793 17.7837 37.3591 16.5705 37.1215 15.3778Z" fill="#FFC107"/>
<path d="M2.61426 10.3886L8.69316 14.8469C9.35618 13.197 10.4067 11.7309 11.7558 10.5726C13.105 9.41424 14.7131 8.59773 16.4444 8.19203C18.1757 7.78633 19.9792 7.80338 21.7025 8.24173C23.4258 8.68008 25.0183 9.52684 26.3453 10.7105L31.5769 5.47883C29.5005 3.5366 27.0035 2.1002 24.2806 1.28161C21.5578 0.463024 18.6827 0.284368 15.8794 0.759572C13.0762 1.23478 10.4206 2.351 8.11966 4.02122C5.81871 5.69144 3.93462 7.87052 2.61426 10.3886Z" fill="#FF3D00"/>
<path d="M18.9811 37.4995C23.5675 37.4959 27.9874 35.7807 31.3757 32.6897L25.6501 27.8447C24.2641 28.8954 22.6499 29.6047 20.9386 29.9151C19.2272 30.2256 17.4668 30.1284 15.8 29.6315C14.1332 29.1345 12.6069 28.2519 11.3449 27.055C10.0829 25.8581 9.12074 24.3807 8.53631 22.7425L2.5166 27.397C4.06249 30.4354 6.41852 32.9871 9.3242 34.77C12.2299 36.5529 15.572 37.4976 18.9811 37.4995Z" fill="#4CAF50"/>
<path d="M37.1215 15.3778H35.6304V15.3001H18.981V22.6998H29.4368C28.7068 24.7497 27.3922 26.5409 25.6555 27.8519L31.3756 32.6895C33.3224 30.9848 34.8764 28.8781 35.9304 26.5147C36.9843 24.1514 37.5131 21.5875 37.4804 19C37.4793 17.7837 37.3591 16.5706 37.1215 15.3778Z" fill="#1976D2"/>
</svg>
