<svg width="198" height="45" viewBox="0 0 198 45" fill="none" xmlns="http://www.w3.org/2000/svg">
<path d="M22.5 45C34.9264 45 45 34.9264 45 22.5C45 10.0736 34.9264 0 22.5 0C10.0736 0 0 10.0736 0 22.5C0 34.9264 10.0736 45 22.5 45Z" fill="#FF0066"/>
<path d="M23.3858 30.6637V32.1491H30.0699C31.5817 32.1488 33.0488 31.636 34.2315 30.6943C35.4142 29.7526 36.2427 28.4378 36.5817 26.9644C36.9206 25.4911 36.75 23.9464 36.0977 22.5825C35.4454 21.2187 34.35 20.1163 32.9902 19.4554C31.6305 18.7945 30.0869 18.6142 28.6115 18.9439C27.136 19.2735 25.816 20.0937 24.8668 21.2705C23.9177 22.4473 23.3957 23.9111 23.3859 25.4228C23.3761 26.9346 23.8792 28.4051 24.813 29.594C24.7243 29.9035 24.5368 30.1756 24.2791 30.3687C24.0215 30.5618 23.7078 30.6654 23.3858 30.6637ZM32.2979 24.7223H33.7833V26.2077H32.2979V24.7223ZM29.3272 24.7223H30.8126V26.2077H29.3272V24.7223ZM26.3565 24.7223H27.8418V26.2077H26.3565V24.7223Z" fill="white"/>
<path d="M21.5183 24.9945V26.4798H14.8338C13.3219 26.4796 11.8547 25.9668 10.6719 25.0251C9.48911 24.0833 8.66054 22.7684 8.32154 21.295C7.98254 19.8216 8.15314 18.2767 8.80548 16.9128C9.45781 15.5488 10.5533 14.4464 11.9131 13.7855C13.2729 13.1245 14.8167 12.9442 16.2922 13.2739C17.7677 13.6036 19.0879 14.4238 20.037 15.6007C20.9862 16.7776 21.5083 18.2415 21.518 19.7533C21.5278 21.2652 21.0246 22.7357 20.0907 23.9247C20.1795 24.2343 20.367 24.5064 20.6247 24.6995C20.8824 24.8926 21.1962 24.9962 21.5183 24.9945ZM12.6062 19.053H11.1208V20.5384H12.6062V19.053ZM15.5769 19.053H14.0915V20.5384H15.5769V19.053ZM18.5476 19.053H17.0622V20.5384H18.5476V19.053Z" fill="white"/>
<path d="M56.032 24.624C56.032 22.992 56.4 21.528 57.136 20.232C57.872 18.92 58.872 17.896 60.136 17.16C61.416 16.424 62.832 16.056 64.384 16.056C66.208 16.056 67.8 16.496 69.16 17.376C70.52 18.256 71.512 19.504 72.136 21.12H69.52C69.056 20.112 68.384 19.336 67.504 18.792C66.64 18.248 65.6 17.976 64.384 17.976C63.216 17.976 62.168 18.248 61.24 18.792C60.312 19.336 59.584 20.112 59.056 21.12C58.528 22.112 58.264 23.28 58.264 24.624C58.264 25.952 58.528 27.12 59.056 28.128C59.584 29.12 60.312 29.888 61.24 30.432C62.168 30.976 63.216 31.248 64.384 31.248C65.6 31.248 66.64 30.984 67.504 30.456C68.384 29.912 69.056 29.136 69.52 28.128H72.136C71.512 29.728 70.52 30.968 69.16 31.848C67.8 32.712 66.208 33.144 64.384 33.144C62.832 33.144 61.416 32.784 60.136 32.064C58.872 31.328 57.872 30.312 57.136 29.016C56.4 27.72 56.032 26.256 56.032 24.624ZM82.3951 19.608C83.3871 19.608 84.2831 19.824 85.0831 20.256C85.8831 20.672 86.5071 21.304 86.9551 22.152C87.4191 23 87.6511 24.032 87.6511 25.248V33H85.4911V25.56C85.4911 24.248 85.1631 23.248 84.5071 22.56C83.8511 21.856 82.9551 21.504 81.8191 21.504C80.6671 21.504 79.7471 21.864 79.0591 22.584C78.3871 23.304 78.0511 24.352 78.0511 25.728V33H75.8671V15.24H78.0511V21.72C78.4831 21.048 79.0751 20.528 79.8271 20.16C80.5951 19.792 81.4511 19.608 82.3951 19.608ZM90.8826 26.376C90.8826 25.032 91.1546 23.856 91.6986 22.848C92.2426 21.824 92.9866 21.032 93.9306 20.472C94.8906 19.912 95.9546 19.632 97.1226 19.632C98.2746 19.632 99.2746 19.88 100.123 20.376C100.971 20.872 101.603 21.496 102.019 22.248V19.848H104.227V33H102.019V30.552C101.587 31.32 100.939 31.96 100.075 32.472C99.2266 32.968 98.2346 33.216 97.0986 33.216C95.9306 33.216 94.8746 32.928 93.9306 32.352C92.9866 31.776 92.2426 30.968 91.6986 29.928C91.1546 28.888 90.8826 27.704 90.8826 26.376ZM102.019 26.4C102.019 25.408 101.819 24.544 101.419 23.808C101.019 23.072 100.475 22.512 99.7866 22.128C99.1146 21.728 98.3706 21.528 97.5546 21.528C96.7386 21.528 95.9946 21.72 95.3226 22.104C94.6506 22.488 94.1146 23.048 93.7146 23.784C93.3146 24.52 93.1146 25.384 93.1146 26.376C93.1146 27.384 93.3146 28.264 93.7146 29.016C94.1146 29.752 94.6506 30.32 95.3226 30.72C95.9946 31.104 96.7386 31.296 97.5546 31.296C98.3706 31.296 99.1146 31.104 99.7866 30.72C100.475 30.32 101.019 29.752 101.419 29.016C101.819 28.264 102.019 27.392 102.019 26.4ZM111.061 21.648V29.4C111.061 30.04 111.197 30.496 111.469 30.768C111.741 31.024 112.213 31.152 112.885 31.152H114.493V33H112.525C111.309 33 110.397 32.72 109.789 32.16C109.181 31.6 108.877 30.68 108.877 29.4V21.648H107.173V19.848H108.877V16.536H111.061V19.848H114.493V21.648H111.061ZM145.522 16.272L140.674 33H138.226L134.338 19.536L130.306 33L127.882 33.024L123.202 16.272H125.53L129.178 30.456L133.21 16.272H135.658L139.498 30.408L143.17 16.272H145.522ZM154.128 33.216C152.896 33.216 151.776 32.936 150.768 32.376C149.776 31.816 148.992 31.024 148.416 30C147.856 28.96 147.576 27.76 147.576 26.4C147.576 25.056 147.864 23.872 148.44 22.848C149.032 21.808 149.832 21.016 150.84 20.472C151.848 19.912 152.976 19.632 154.224 19.632C155.472 19.632 156.6 19.912 157.608 20.472C158.616 21.016 159.408 21.8 159.984 22.824C160.576 23.848 160.872 25.04 160.872 26.4C160.872 27.76 160.568 28.96 159.96 30C159.368 31.024 158.56 31.816 157.536 32.376C156.512 32.936 155.376 33.216 154.128 33.216ZM154.128 31.296C154.912 31.296 155.648 31.112 156.336 30.744C157.024 30.376 157.576 29.824 157.992 29.088C158.424 28.352 158.64 27.456 158.64 26.4C158.64 25.344 158.432 24.448 158.016 23.712C157.6 22.976 157.056 22.432 156.384 22.08C155.712 21.712 154.984 21.528 154.2 21.528C153.4 21.528 152.664 21.712 151.992 22.08C151.336 22.432 150.808 22.976 150.408 23.712C150.008 24.448 149.808 25.344 149.808 26.4C149.808 27.472 150 28.376 150.384 29.112C150.784 29.848 151.312 30.4 151.968 30.768C152.624 31.12 153.344 31.296 154.128 31.296ZM166.408 21.984C166.792 21.232 167.336 20.648 168.04 20.232C168.76 19.816 169.632 19.608 170.656 19.608V21.864H170.08C167.632 21.864 166.408 23.192 166.408 25.848V33H164.224V19.848H166.408V21.984ZM181.001 33L175.841 27.192V33H173.657V15.24H175.841V25.68L180.905 19.848H183.953L177.761 26.4L183.977 33H181.001ZM191.144 33.216C190.136 33.216 189.232 33.048 188.432 32.712C187.632 32.36 187 31.88 186.536 31.272C186.072 30.648 185.816 29.936 185.768 29.136H188.024C188.088 29.792 188.392 30.328 188.936 30.744C189.496 31.16 190.224 31.368 191.12 31.368C191.952 31.368 192.608 31.184 193.088 30.816C193.568 30.448 193.808 29.984 193.808 29.424C193.808 28.848 193.552 28.424 193.04 28.152C192.528 27.864 191.736 27.584 190.664 27.312C189.688 27.056 188.888 26.8 188.264 26.544C187.656 26.272 187.128 25.88 186.68 25.368C186.248 24.84 186.032 24.152 186.032 23.304C186.032 22.632 186.232 22.016 186.632 21.456C187.032 20.896 187.6 20.456 188.336 20.136C189.072 19.8 189.912 19.632 190.856 19.632C192.312 19.632 193.488 20 194.384 20.736C195.28 21.472 195.76 22.48 195.824 23.76H193.64C193.592 23.072 193.312 22.52 192.8 22.104C192.304 21.688 191.632 21.48 190.784 21.48C190 21.48 189.376 21.648 188.912 21.984C188.448 22.32 188.216 22.76 188.216 23.304C188.216 23.736 188.352 24.096 188.624 24.384C188.912 24.656 189.264 24.88 189.68 25.056C190.112 25.216 190.704 25.4 191.456 25.608C192.4 25.864 193.168 26.12 193.76 26.376C194.352 26.616 194.856 26.984 195.272 27.48C195.704 27.976 195.928 28.624 195.944 29.424C195.944 30.144 195.744 30.792 195.344 31.368C194.944 31.944 194.376 32.4 193.64 32.736C192.92 33.056 192.088 33.216 191.144 33.216Z" fill="#222222"/>
</svg>
