<svg width="198" height="45" viewBox="0 0 198 45" fill="none" xmlns="http://www.w3.org/2000/svg">
<path d="M22.5 45C34.9264 45 45 34.9264 45 22.5C45 10.0736 34.9264 0 22.5 0C10.0736 0 0 10.0736 0 22.5C0 34.9264 10.0736 45 22.5 45Z" fill="#FF0066"/>
<path d="M23.3857 30.6637V32.1491H30.0698C31.5816 32.1488 33.0487 31.636 34.2314 30.6943C35.4142 29.7526 36.2427 28.4378 36.5816 26.9644C36.9206 25.4911 36.75 23.9464 36.0977 22.5825C35.4454 21.2187 34.3499 20.1163 32.9902 19.4554C31.6305 18.7945 30.0868 18.6142 28.6114 18.9439C27.136 19.2735 25.8159 20.0937 24.8668 21.2705C23.9177 22.4473 23.3956 23.9111 23.3858 25.4228C23.376 26.9346 23.8791 28.4051 24.813 29.594C24.7242 29.9035 24.5367 30.1756 24.2791 30.3687C24.0214 30.5618 23.7077 30.6654 23.3857 30.6637ZM32.2978 24.7223H33.7832V26.2077H32.2978V24.7223ZM29.3271 24.7223H30.8125V26.2077H29.3271V24.7223ZM26.3564 24.7223H27.8418V26.2077H26.3564V24.7223Z" fill="white"/>
<path d="M21.518 24.9945V26.4798H14.8336C13.3217 26.4796 11.8545 25.9668 10.6717 25.0251C9.48886 24.0833 8.6603 22.7684 8.3213 21.295C7.9823 19.8216 8.15289 18.2767 8.80523 16.9128C9.45757 15.5488 10.5531 14.4464 11.9129 13.7855C13.2727 13.1245 14.8164 12.9442 16.2919 13.2739C17.7675 13.6036 19.0876 14.4238 20.0368 15.6007C20.9859 16.7776 21.508 18.2415 21.5178 19.7533C21.5275 21.2652 21.0243 22.7357 20.0904 23.9247C20.1792 24.2343 20.3667 24.5064 20.6245 24.6995C20.8822 24.8926 21.196 24.9962 21.518 24.9945ZM12.6059 19.053H11.1206V20.5384H12.6059V19.053ZM15.5766 19.053H14.0913V20.5384H15.5766V19.053ZM18.5473 19.053H17.062V20.5384H18.5473V19.053Z" fill="white"/>
<path d="M56.032 24.624C56.032 29.64 59.704 33.144 64.384 33.144C68.008 33.144 70.888 31.344 72.136 28.128H69.52C68.608 30.12 66.832 31.248 64.384 31.248C60.88 31.248 58.264 28.704 58.264 24.624C58.264 20.52 60.88 17.976 64.384 17.976C66.832 17.976 68.608 19.104 69.52 21.12H72.136C70.888 17.88 68.008 16.056 64.384 16.056C59.704 16.056 56.032 19.608 56.032 24.624ZM75.8671 33H78.0511V25.728C78.0511 22.896 79.5871 21.504 81.8191 21.504C84.0271 21.504 85.4911 22.872 85.4911 25.56V33H87.6511V25.248C87.6511 21.48 85.3231 19.608 82.3951 19.608C80.5471 19.608 78.9151 20.352 78.0511 21.744V15.24H75.8671V33ZM90.8826 26.376C90.8826 30.456 93.5946 33.216 97.0986 33.216C99.5226 33.216 101.227 31.968 102.019 30.552V33H104.227V19.848H102.019V22.248C101.251 20.88 99.5706 19.632 97.1226 19.632C93.5946 19.632 90.8826 22.272 90.8826 26.376ZM102.019 26.4C102.019 29.496 99.9546 31.296 97.5546 31.296C95.1546 31.296 93.1146 29.472 93.1146 26.376C93.1146 23.28 95.1546 21.528 97.5546 21.528C99.9546 21.528 102.019 23.352 102.019 26.4ZM108.877 29.4C108.877 32.04 110.197 33 112.525 33H114.493V31.152H112.885C111.541 31.152 111.061 30.696 111.061 29.4V21.648H114.493V19.848H111.061V16.536H108.877V19.848H107.173V21.648H108.877V29.4ZM127.882 33.024L130.306 33L134.338 19.536L138.226 33H140.674L145.522 16.272H143.17L139.498 30.408L135.658 16.272H133.21L129.178 30.456L125.53 16.272H123.202L127.882 33.024ZM160.872 26.4C160.872 22.248 157.968 19.632 154.224 19.632C150.504 19.632 147.576 22.248 147.576 26.4C147.576 30.576 150.408 33.216 154.128 33.216C157.872 33.216 160.872 30.576 160.872 26.4ZM149.808 26.4C149.808 23.088 151.896 21.528 154.2 21.528C156.456 21.528 158.64 23.088 158.64 26.4C158.64 29.736 156.408 31.296 154.128 31.296C151.848 31.296 149.808 29.736 149.808 26.4ZM166.408 25.848C166.408 22.8 167.992 21.864 170.08 21.864H170.656V19.608C168.568 19.608 167.152 20.52 166.408 21.984V19.848H164.224V33H166.408V25.848ZM173.657 33H175.841V27.192L181.001 33H183.977L177.761 26.4L183.953 19.848H180.905L175.841 25.68V15.24H173.657V33ZM195.944 29.424C195.848 24.72 188.216 26.424 188.216 23.304C188.216 22.248 189.176 21.48 190.784 21.48C192.536 21.48 193.544 22.44 193.64 23.76H195.824C195.68 21.192 193.76 19.632 190.856 19.632C187.928 19.632 186.032 21.288 186.032 23.304C186.032 28.2 193.808 26.496 193.808 29.424C193.808 30.504 192.848 31.368 191.12 31.368C189.272 31.368 188.144 30.408 188.024 29.136H185.768C185.912 31.536 188.072 33.216 191.144 33.216C194.048 33.216 195.944 31.584 195.944 29.424Z" fill="white"/>
</svg>
