<svg width="626" height="659" viewBox="0 0 626 659" fill="none" xmlns="http://www.w3.org/2000/svg">
<path d="M185.366 239.952C206.474 227.985 219.636 211.044 219.636 192.262C219.636 155.958 170.476 126.533 109.818 126.533C49.1597 126.533 0 155.958 0 192.262C0 228.567 49.1758 257.991 109.818 257.991C123.465 258.022 137.068 256.461 150.354 253.34C160.802 261.237 178.939 270.879 207.62 274.028C207.653 274.028 192.892 258.847 185.366 239.952Z" fill="url(#paint0_linear_203_17218)"/>
<path d="M61.5629 194.2H48.9984V205.893H44.6057V179.149H48.9984V190.615H61.5629V179.149H65.9556V205.893H61.5629V194.2Z" fill="white"/>
<path d="M84.6894 206.199C78.6171 206.199 74.1113 201.887 74.1113 195.234C74.1113 188.58 78.4233 184.317 84.6894 184.317C86.0696 184.254 87.4477 184.481 88.7348 184.983C90.0219 185.486 91.1893 186.252 92.1617 187.234C93.1341 188.215 93.8899 189.39 94.3804 190.682C94.8708 191.973 95.085 193.354 95.009 194.733C95.0115 195.458 94.9575 196.181 94.8475 196.897H78.6978C78.7567 198.441 79.4259 199.898 80.5583 200.949C81.6908 202 83.194 202.558 84.7378 202.501C85.7732 202.572 86.8058 202.328 87.6995 201.8C88.5932 201.272 89.3061 200.487 89.7442 199.546H94.4761C93.8091 201.58 92.487 203.336 90.7165 204.54C88.9459 205.744 86.8266 206.327 84.6894 206.199ZM78.6978 193.28H90.4387C90.4211 192.532 90.2515 191.796 89.9401 191.116C89.6288 190.436 89.1822 189.827 88.6276 189.325C88.073 188.823 87.4221 188.44 86.7145 188.198C86.0068 187.956 85.2574 187.861 84.5117 187.918C83.0233 187.904 81.5871 188.465 80.5034 189.486C79.4198 190.506 78.7728 191.906 78.6978 193.393V193.28Z" fill="white"/>
<path d="M103.164 177.421H107.557V205.892H103.164V177.421Z" fill="white"/>
<path d="M117.166 177.421H121.558V205.892H117.166V177.421Z" fill="white"/>
<path d="M140.373 206.199C138.937 206.242 137.507 205.985 136.176 205.445C134.845 204.905 133.64 204.093 132.64 203.061C131.641 202.029 130.867 200.8 130.368 199.452C129.87 198.104 129.658 196.668 129.747 195.233C129.69 193.778 129.928 192.327 130.446 190.966C130.964 189.605 131.752 188.363 132.761 187.314C133.771 186.264 134.982 185.43 136.322 184.859C137.661 184.289 139.103 183.995 140.559 183.995C142.015 183.995 143.456 184.289 144.796 184.859C146.136 185.43 147.347 186.264 148.356 187.314C149.366 188.363 150.153 189.605 150.671 190.966C151.189 192.327 151.427 193.778 151.371 195.233C151.418 196.689 151.166 198.139 150.63 199.493C150.093 200.847 149.284 202.076 148.253 203.104C147.222 204.133 145.99 204.938 144.635 205.47C143.279 206.003 141.828 206.251 140.373 206.199ZM140.373 202.388C143.603 202.388 146.833 200.046 146.833 195.233C146.833 190.421 143.716 188.128 140.454 188.128C137.192 188.128 134.188 190.437 134.188 195.233C134.188 200.03 137.062 202.42 140.373 202.42V202.388Z" fill="white"/>
<path d="M176.726 206.199C176.169 206.206 175.623 206.046 175.156 205.741C174.69 205.437 174.325 205 174.107 204.487C173.89 203.974 173.829 203.408 173.934 202.861C174.039 202.314 174.304 201.81 174.696 201.414C175.087 201.018 175.588 200.747 176.134 200.636C176.68 200.525 177.246 200.578 177.762 200.79C178.277 201.002 178.718 201.362 179.028 201.825C179.338 202.287 179.504 202.832 179.504 203.389C179.508 203.757 179.44 204.121 179.302 204.462C179.164 204.803 178.96 205.113 178.702 205.374C178.444 205.636 178.136 205.843 177.797 205.985C177.458 206.126 177.094 206.199 176.726 206.199ZM174.272 179.197H178.923L178.422 197.85H174.772L174.272 179.197Z" fill="white"/>
<path d="M411.929 275.433H406.552V247.123H411.929C412.885 247.123 413.801 247.502 414.476 248.178C415.151 248.853 415.531 249.769 415.531 250.724V271.832C415.531 272.787 415.151 273.703 414.476 274.378C413.801 275.054 412.885 275.433 411.929 275.433Z" fill="url(#paint1_linear_203_17218)"/>
<path d="M249.092 275.433H243.747C242.792 275.433 241.876 275.054 241.2 274.378C240.525 273.703 240.146 272.787 240.146 271.832V250.724C240.146 249.769 240.525 248.853 241.2 248.178C241.876 247.502 242.792 247.123 243.747 247.123H249.125V275.433H249.092Z" fill="url(#paint2_linear_203_17218)"/>
<path d="M331.085 180.069H324.593V193.99H331.085V180.069Z" fill="url(#paint3_linear_203_17218)"/>
<path d="M332.484 180.302C338.681 177.735 341.623 170.631 339.057 164.434C336.49 158.238 329.386 155.295 323.189 157.862C316.992 160.429 314.05 167.533 316.617 173.73C319.183 179.926 326.287 182.869 332.484 180.302Z" fill="url(#paint4_linear_203_17218)"/>
<path d="M310.575 192.827H345.103C347.951 192.827 350.683 193.959 352.697 195.973C354.711 197.987 355.843 200.719 355.843 203.567V204.439H299.835V203.567C299.835 200.719 300.967 197.987 302.981 195.973C304.995 193.959 307.727 192.827 310.575 192.827Z" fill="url(#paint5_linear_203_17218)"/>
<path d="M335.187 317.342H320.475V351.773H335.187V317.342Z" fill="url(#paint6_linear_203_17218)"/>
<path d="M352.58 200.256H303.081C271.9 200.256 246.622 225.534 246.622 256.715V265.84C246.622 297.022 271.9 322.299 303.081 322.299H352.58C383.762 322.299 409.039 297.022 409.039 265.84V256.715C409.039 225.534 383.762 200.256 352.58 200.256Z" fill="url(#paint7_linear_203_17218)"/>
<path d="M374.48 240.162H281.199C275.179 240.162 270.298 245.043 270.298 251.063V271.492C270.298 277.513 275.179 282.393 281.199 282.393H374.48C380.5 282.393 385.381 277.513 385.381 271.492V251.063C385.381 245.043 380.5 240.162 374.48 240.162Z" fill="url(#paint8_linear_203_17218)"/>
<path d="M372.396 261.286C372.396 262.787 371.95 264.255 371.116 265.503C370.282 266.751 369.097 267.724 367.71 268.298C366.323 268.873 364.797 269.023 363.324 268.73C361.852 268.437 360.5 267.714 359.438 266.653C358.376 265.591 357.654 264.239 357.361 262.767C357.068 261.294 357.218 259.768 357.793 258.381C358.367 256.994 359.34 255.809 360.588 254.975C361.836 254.141 363.304 253.695 364.805 253.695C366.818 253.695 368.749 254.495 370.172 255.919C371.596 257.342 372.396 259.273 372.396 261.286Z" fill="url(#paint9_linear_203_17218)"/>
<path d="M298.446 261.286C298.446 262.788 298 264.256 297.166 265.504C296.331 266.753 295.144 267.726 293.756 268.3C292.369 268.874 290.842 269.023 289.369 268.729C287.896 268.435 286.543 267.71 285.483 266.647C284.422 265.584 283.7 264.23 283.409 262.757C283.118 261.283 283.271 259.757 283.848 258.37C284.425 256.983 285.4 255.799 286.65 254.967C287.901 254.135 289.37 253.692 290.872 253.695C291.868 253.695 292.854 253.892 293.774 254.274C294.694 254.655 295.53 255.215 296.233 255.92C296.937 256.625 297.494 257.462 297.874 258.382C298.254 259.303 298.448 260.29 298.446 261.286Z" fill="url(#paint10_linear_203_17218)"/>
<path d="M394.23 372.541L388.126 375.771C388.982 377.386 408.83 415.079 378.759 454.048L384.282 458.296C393.768 446.35 399.727 431.99 401.485 416.837C403.243 401.684 400.73 386.341 394.23 372.541Z" fill="#0B0A0C"/>
<path d="M384.912 451.9C379.486 445.441 367.535 446.829 357.684 455.13C357.043 455.736 356.659 456.564 356.609 457.444C356.559 458.324 356.847 459.19 357.414 459.865C357.982 460.539 358.785 460.972 359.661 461.073C360.537 461.175 361.418 460.938 362.125 460.411C369.344 454.355 377.144 453.418 379.631 456.374C382.118 459.329 379.825 466.855 372.606 472.911C372.259 473.202 371.973 473.558 371.764 473.959C371.555 474.36 371.427 474.798 371.387 475.249C371.347 475.7 371.396 476.154 371.532 476.585C371.668 477.017 371.887 477.417 372.178 477.764C372.468 478.111 372.824 478.397 373.226 478.606C373.627 478.815 374.065 478.943 374.516 478.983C374.966 479.023 375.421 478.974 375.852 478.838C376.284 478.702 376.684 478.483 377.031 478.192C386.882 469.891 390.338 458.36 384.912 451.9Z" fill="#131214"/>
<path d="M405.357 403.225C404.211 401.859 402.677 400.872 400.958 400.395C399.239 399.918 397.416 399.974 395.73 400.555C394.043 401.136 392.573 402.214 391.512 403.648C390.451 405.083 389.85 406.805 389.789 408.587C389.643 412.652 389.129 416.695 388.254 420.667C388.003 421.797 387.977 422.966 388.177 424.107C388.378 425.247 388.801 426.337 389.422 427.314C390.044 428.291 390.852 429.136 391.8 429.801C392.748 430.466 393.818 430.937 394.948 431.189C396.079 431.44 397.248 431.466 398.388 431.266C399.529 431.065 400.619 430.642 401.596 430.021C402.573 429.399 403.418 428.591 404.082 427.643C404.747 426.695 405.219 425.625 405.47 424.495C406.581 419.466 407.235 414.347 407.424 409.201C407.5 407.022 406.764 404.892 405.357 403.225Z" fill="url(#paint11_linear_203_17218)"/>
<path d="M258.782 372.541L264.855 375.771C263.999 377.386 244.167 415.079 274.221 454.048L268.698 458.296C259.22 446.345 253.27 431.984 251.518 416.832C249.766 401.68 252.282 386.339 258.782 372.541Z" fill="#0B0A0C"/>
<path d="M268.086 451.9C273.512 445.441 285.479 446.829 295.314 455.13C295.692 455.412 296.008 455.767 296.243 456.175C296.478 456.583 296.627 457.035 296.682 457.503C296.736 457.971 296.694 458.445 296.559 458.896C296.423 459.347 296.197 459.765 295.894 460.126C295.591 460.486 295.217 460.781 294.796 460.992C294.375 461.202 293.915 461.325 293.445 461.352C292.975 461.378 292.504 461.309 292.062 461.147C291.62 460.985 291.215 460.735 290.873 460.411C283.654 454.355 275.854 453.418 273.383 456.374C270.912 459.329 273.173 466.855 280.408 472.911C280.786 473.193 281.102 473.548 281.337 473.956C281.572 474.364 281.721 474.816 281.776 475.284C281.83 475.752 281.788 476.225 281.652 476.677C281.517 477.128 281.291 477.546 280.988 477.906C280.684 478.267 280.311 478.562 279.89 478.772C279.469 478.983 279.009 479.106 278.539 479.133C278.069 479.159 277.598 479.09 277.156 478.928C276.713 478.766 276.309 478.516 275.967 478.192C266.148 469.891 262.676 458.36 268.086 451.9Z" fill="#131214"/>
<path d="M247.624 403.225C248.77 401.859 250.304 400.872 252.023 400.395C253.741 399.918 255.564 399.974 257.251 400.555C258.937 401.136 260.408 402.214 261.469 403.648C262.529 405.083 263.13 406.805 263.192 408.587C263.338 412.652 263.851 416.695 264.726 420.667C264.978 421.797 265.004 422.966 264.803 424.107C264.603 425.247 264.18 426.337 263.558 427.314C262.937 428.291 262.129 429.136 261.181 429.801C260.232 430.466 259.163 430.937 258.032 431.189C256.902 431.44 255.733 431.466 254.592 431.266C253.452 431.065 252.362 430.642 251.385 430.021C250.408 429.399 249.563 428.591 248.898 427.643C248.233 426.695 247.762 425.625 247.511 424.495C246.397 419.467 245.748 414.347 245.573 409.201C245.49 407.023 246.221 404.893 247.624 403.225Z" fill="url(#paint12_linear_203_17218)"/>
<path d="M375.287 400.868C386.944 400.868 396.395 391.417 396.395 379.76C396.395 368.103 386.944 358.652 375.287 358.652C363.629 358.652 354.179 368.103 354.179 379.76C354.179 391.417 363.629 400.868 375.287 400.868Z" fill="url(#paint13_linear_203_17218)"/>
<path d="M280.391 400.868C292.048 400.868 301.498 391.417 301.498 379.76C301.498 368.103 292.048 358.652 280.391 358.652C268.733 358.652 259.283 368.103 259.283 379.76C259.283 391.417 268.733 400.868 280.391 400.868Z" fill="url(#paint14_linear_203_17218)"/>
<path d="M390.919 397.428C390.798 403.406 390.079 409.358 388.771 415.193C387.964 419.02 386.963 423.057 385.784 427.208C384.605 431.358 383.393 435.137 381.972 439.223C381.229 441.355 380.438 443.519 379.614 445.683C377.03 452.514 374.107 459.378 370.926 465.983C370.441 466.968 369.973 467.954 369.489 468.923C357.069 493.922 341.259 514.578 327.839 514.578C313.304 514.578 297.429 493.696 285.236 468.519C284.735 467.485 284.25 466.452 283.766 465.418C280.698 458.829 277.887 452.03 275.417 445.263C274.609 443.018 273.802 440.79 273.091 438.561C271.848 434.814 270.733 431.1 269.732 427.482C268.585 423.332 267.616 419.278 266.857 415.435C265.581 409.53 264.878 403.516 264.758 397.476C264.758 380.746 271.404 364.701 283.234 352.872C295.064 341.042 311.108 334.396 327.839 334.396C344.569 334.396 360.613 341.042 372.443 352.872C384.273 364.701 390.919 380.746 390.919 397.476V397.428Z" fill="url(#paint15_linear_203_17218)"/>
<path d="M327.838 401.094C337.052 401.094 344.521 393.625 344.521 384.411C344.521 375.197 337.052 367.728 327.838 367.728C318.625 367.728 311.156 375.197 311.156 384.411C311.156 393.625 318.625 401.094 327.838 401.094Z" fill="url(#paint16_linear_203_17218)"/>
<path d="M327.839 395.764C334.109 395.764 339.192 390.681 339.192 384.411C339.192 378.141 334.109 373.058 327.839 373.058C321.569 373.058 316.486 378.141 316.486 384.411C316.486 390.681 321.569 395.764 327.839 395.764Z" fill="url(#paint17_linear_203_17218)"/>
<path d="M269.732 427.465V427.45" stroke="#DA0100" stroke-width="0.81" stroke-miterlimit="10"/>
<path d="M266.858 415.402V415.386" stroke="#DA0100" stroke-width="0.81" stroke-miterlimit="10"/>
<path d="M379.614 445.667C377.03 452.498 374.107 459.362 370.926 465.967C370.441 466.952 369.973 467.937 369.488 468.906C342.243 478.755 312.386 478.612 285.236 468.502C284.735 467.469 284.25 466.435 283.766 465.402C280.697 458.813 277.887 452.014 275.417 445.247C288.11 452.95 306.908 457.827 327.871 457.827C348.462 457.827 366.953 453.128 379.614 445.667Z" fill="url(#paint18_linear_203_17218)"/>
<path d="M327.532 486.526C333.526 486.526 338.384 477.263 338.384 465.838C338.384 454.412 333.526 445.15 327.532 445.15C321.538 445.15 316.679 454.412 316.679 465.838C316.679 477.263 321.538 486.526 327.532 486.526Z" fill="url(#paint19_linear_203_17218)"/>
<path d="M327.532 482.359C331.313 482.359 334.379 474.962 334.379 465.838C334.379 456.713 331.313 449.317 327.532 449.317C323.75 449.317 320.684 456.713 320.684 465.838C320.684 474.962 323.75 482.359 327.532 482.359Z" fill="url(#paint20_linear_203_17218)"/>
<path d="M342.454 291.567C342.454 295.443 340.915 299.16 338.174 301.901C335.433 304.642 331.715 306.182 327.839 306.182C323.963 306.182 320.245 304.642 317.504 301.901C314.763 299.16 313.223 295.443 313.223 291.567" stroke="#0F161B" stroke-width="2.26" stroke-miterlimit="10"/>
<path d="M319.231 330.875H336.22C336.935 330.875 337.643 331.016 338.303 331.289C338.963 331.563 339.563 331.963 340.069 332.469C340.574 332.974 340.975 333.574 341.248 334.234C341.522 334.895 341.663 335.603 341.663 336.317V339.709H313.788V336.317C313.788 335.603 313.929 334.895 314.203 334.234C314.476 333.574 314.877 332.974 315.382 332.469C315.888 331.963 316.488 331.563 317.148 331.289C317.808 331.016 318.516 330.875 319.231 330.875Z" fill="url(#paint21_linear_203_17218)"/>
<g opacity="0.7">
<path d="M376.287 302.29H279.389C277.613 302.29 276.159 304.179 276.014 306.618L268.084 391.921C267.923 394.634 269.489 396.943 271.46 396.943H384.185C386.155 396.943 387.721 394.634 387.56 391.921L379.63 306.666C379.517 304.179 378.048 302.29 376.287 302.29Z" fill="url(#paint22_linear_203_17218)" style="mix-blend-mode:screen"/>
</g>
<path d="M379.518 461.574H276.16C275.306 461.573 274.484 461.249 273.859 460.668C273.233 460.088 272.85 459.292 272.784 458.441L268.085 396.766C268.047 396.3 268.106 395.831 268.259 395.389C268.411 394.948 268.654 394.542 268.971 394.199C269.288 393.856 269.673 393.583 270.102 393.396C270.53 393.21 270.993 393.114 271.46 393.116H384.185C384.655 393.11 385.121 393.202 385.554 393.386C385.986 393.571 386.375 393.844 386.696 394.187C387.016 394.531 387.262 394.938 387.416 395.382C387.571 395.826 387.631 396.297 387.593 396.766L382.893 458.49C382.817 459.332 382.428 460.116 381.803 460.686C381.179 461.257 380.364 461.574 379.518 461.574Z" fill="url(#paint23_linear_203_17218)"/>
<path d="M377.564 460.282H278.114C277.292 460.284 276.501 459.973 275.901 459.412C275.301 458.85 274.937 458.082 274.884 457.262L270.362 397.864C270.322 397.416 270.375 396.964 270.519 396.538C270.663 396.112 270.895 395.721 271.199 395.389C271.503 395.058 271.873 394.794 272.285 394.613C272.697 394.433 273.142 394.341 273.592 394.343H382.086C382.535 394.341 382.981 394.433 383.393 394.613C383.805 394.794 384.175 395.058 384.479 395.389C384.783 395.721 385.014 396.112 385.158 396.538C385.302 396.964 385.356 397.416 385.315 397.864L380.794 457.262C380.74 458.082 380.376 458.85 379.776 459.412C379.176 459.973 378.385 460.284 377.564 460.282Z" fill="url(#paint24_linear_203_17218)"/>
<path d="M335.025 430.002C335.021 431.422 334.597 432.81 333.806 433.99C333.014 435.17 331.89 436.088 330.577 436.63C329.264 437.171 327.819 437.311 326.426 437.032C325.033 436.753 323.754 436.067 322.751 435.062C321.747 434.056 321.064 432.775 320.788 431.382C320.512 429.988 320.656 428.544 321.2 427.232C321.744 425.919 322.666 424.798 323.847 424.009C325.028 423.22 326.417 422.799 327.838 422.799C328.783 422.799 329.719 422.985 330.592 423.348C331.465 423.71 332.258 424.241 332.925 424.91C333.593 425.579 334.122 426.373 334.482 427.247C334.842 428.12 335.027 429.057 335.025 430.002Z" fill="url(#paint25_linear_203_17218)" style="mix-blend-mode:screen"/>
<path d="M291.567 58.6395L293.392 67.4249L302.177 69.2498L293.392 71.0747L291.567 79.8602L289.742 71.0747L280.957 69.2498L289.742 67.4249L291.567 58.6395Z" fill="url(#paint26_linear_203_17218)" style="mix-blend-mode:screen"/>
<path d="M496.393 143.7L498.218 152.485L507.004 154.31L498.218 156.135L496.393 164.921L494.568 156.135L485.783 154.31L494.568 152.485L496.393 143.7Z" fill="url(#paint27_linear_203_17218)" style="mix-blend-mode:screen"/>
<path d="M571.667 109.059L572.232 111.756L574.929 112.321L572.232 112.886L571.667 115.583L571.118 112.886L568.421 112.321L571.118 111.756L571.667 109.059Z" fill="url(#paint28_radial_203_17218)" style="mix-blend-mode:screen"/>
<path d="M204.536 404.291L205.101 406.988L207.798 407.554L205.101 408.119L204.536 410.816L203.987 408.119L201.29 407.554L203.987 406.988L204.536 404.291Z" fill="url(#paint29_radial_203_17218)" style="mix-blend-mode:screen"/>
<path d="M296.105 137.24L296.654 139.937L299.351 140.502L296.654 141.068L296.105 143.765L295.54 141.068L292.843 140.502L295.54 139.937L296.105 137.24Z" fill="url(#paint30_radial_203_17218)" style="mix-blend-mode:screen"/>
<path d="M145.331 40.342L145.88 43.039L148.577 43.6042L145.88 44.1694L145.331 46.8664L144.766 44.1694L142.069 43.6042L144.766 43.039L145.331 40.342Z" fill="url(#paint31_radial_203_17218)" style="mix-blend-mode:screen"/>
<path d="M622.28 417.179L622.845 419.876L625.542 420.425L622.845 420.99L622.28 423.687L621.715 420.99L619.018 420.425L621.715 419.876L622.28 417.179Z" fill="url(#paint32_radial_203_17218)" style="mix-blend-mode:screen"/>
<path d="M218.021 101.178L218.586 103.875L221.283 104.424L218.586 104.989L218.021 107.686L217.456 104.989L214.759 104.424L217.456 103.875L218.021 101.178Z" fill="url(#paint33_radial_203_17218)" style="mix-blend-mode:screen"/>
<path d="M100.112 320.281L100.661 322.978L103.358 323.527L100.661 324.092L100.112 326.789L99.5471 324.092L96.8501 323.527L99.5471 322.978L100.112 320.281Z" fill="url(#paint34_linear_203_17218)" style="mix-blend-mode:screen"/>
<path d="M362.319 0L362.884 2.697L365.581 3.24609L362.884 3.81133L362.319 6.50832L361.754 3.81133L359.057 3.24609L361.754 2.697L362.319 0Z" fill="url(#paint35_radial_203_17218)" style="mix-blend-mode:screen"/>
<path d="M411.801 112.483L412.35 115.18L415.047 115.745L412.35 116.294L411.801 118.991L411.236 116.294L408.539 115.745L411.236 115.18L411.801 112.483Z" fill="url(#paint36_radial_203_17218)" style="mix-blend-mode:screen"/>
<path d="M200.045 328.226L201.87 337.012L210.656 338.837L201.87 340.662L200.045 349.447L198.22 340.662L189.435 338.837L198.22 337.012L200.045 328.226Z" fill="url(#paint37_linear_203_17218)" style="mix-blend-mode:screen"/>
<path d="M589.997 259.267L591.821 268.053L600.607 269.877L591.821 271.702L589.997 280.488L588.172 271.702L579.386 269.877L588.172 268.053L589.997 259.267Z" fill="url(#paint38_radial_203_17218)" style="mix-blend-mode:screen"/>
<path d="M455.211 304.115L457.036 312.9L465.821 314.725L457.036 316.55L455.211 325.336L453.386 316.55L444.6 314.725L453.386 312.9L455.211 304.115Z" fill="url(#paint39_radial_203_17218)" style="mix-blend-mode:screen"/>
<path d="M433.684 21.4954L435.509 30.2808L444.295 32.1057L435.509 33.9306L433.684 42.7161L431.859 33.9306L423.074 32.1057L431.859 30.2808L433.684 21.4954Z" fill="url(#paint40_radial_203_17218)" style="mix-blend-mode:screen"/>
<path d="M585.103 459.83H70.5742V658.391H585.103V459.83Z" fill="url(#paint41_linear_203_17218)" style="mix-blend-mode:multiply"/>
<path d="M622.505 459.83H33.1548V496.086H622.505V459.83Z" fill="#FF0066" fill-opacity="0.83" style="mix-blend-mode:multiply"/>
<path d="M622.505 478.515H33.1548V496.086H622.505V478.515Z" fill="#FF88B8" fill-opacity="0.83" style="mix-blend-mode:multiply"/>
<path opacity="0.7" d="M499.301 421.943C492.841 415.031 488.19 406.827 490.063 397.04C490.822 392.986 491.678 389.627 488.916 386.107C487.506 384.567 486.246 382.896 485.153 381.116C482.44 375.674 484.475 369.957 486.768 364.789C488.687 361.061 490.11 357.097 491 353C491.71 348.607 490.531 344.263 490.806 339.854C491.08 335.445 493.261 330.875 497.427 329.922C498.83 329.697 500.265 329.797 501.623 330.214C502.981 330.632 504.225 331.355 505.26 332.328C507.762 334.458 509.516 337.333 510.266 340.532C511.251 344.877 510.363 349.673 512.35 353.646C514.11 357.166 517.744 359.298 520.214 362.367C521.519 364 522.479 365.882 523.034 367.897C523.589 369.913 523.729 372.02 523.444 374.091C522.96 377.547 521.313 380.761 520.973 384.217C520.198 392.001 526.061 399.236 525.479 407.037C525.243 409.304 524.548 411.499 523.438 413.489C522.327 415.48 520.824 417.224 519.019 418.616C514.998 421.846 509.087 424.317 503.871 423.655C502.472 423.489 501.122 423.04 499.903 422.335C498.684 421.629 497.622 420.683 496.781 419.553" fill="url(#paint42_linear_203_17218)"/>
<path d="M508.909 418.874C508.77 418.875 508.635 418.825 508.531 418.732C508.426 418.64 508.36 418.512 508.344 418.374L500.14 348.123C500.128 348.048 500.133 347.972 500.152 347.899C500.172 347.826 500.206 347.758 500.253 347.699C500.3 347.64 500.358 347.591 500.425 347.555C500.492 347.52 500.565 347.499 500.64 347.493C500.79 347.479 500.939 347.523 501.056 347.617C501.173 347.71 501.25 347.845 501.27 347.993L509.474 418.245C509.486 418.319 509.481 418.395 509.462 418.468C509.443 418.541 509.408 418.61 509.361 418.669C509.314 418.728 509.256 418.777 509.189 418.812C509.122 418.847 509.049 418.869 508.974 418.874H508.909Z" fill="white"/>
<path d="M504.968 384.96C504.865 384.966 504.763 384.938 504.677 384.879C504.612 384.843 504.555 384.793 504.51 384.734C504.464 384.675 504.43 384.608 504.411 384.536C504.391 384.463 504.386 384.388 504.396 384.314C504.406 384.24 504.43 384.169 504.467 384.104L513.576 368.762C513.614 368.697 513.665 368.641 513.725 368.596C513.785 368.55 513.853 368.518 513.926 368.499C513.998 368.48 514.074 368.476 514.148 368.486C514.223 368.497 514.294 368.522 514.359 368.56C514.424 368.598 514.48 368.649 514.525 368.709C514.571 368.769 514.604 368.837 514.622 368.91C514.641 368.983 514.645 369.058 514.635 369.133C514.624 369.207 514.599 369.279 514.561 369.343L505.453 384.686C505.404 384.77 505.333 384.841 505.248 384.889C505.162 384.937 505.066 384.962 504.968 384.96Z" fill="white"/>
<path d="M503.37 374.786H503.128L491.096 369.053C491.029 369.02 490.969 368.974 490.92 368.919C490.871 368.863 490.833 368.798 490.809 368.727C490.785 368.656 490.775 368.582 490.78 368.508C490.785 368.433 490.805 368.361 490.838 368.294C490.869 368.225 490.913 368.164 490.969 368.113C491.024 368.062 491.089 368.023 491.16 367.997C491.23 367.972 491.305 367.96 491.38 367.964C491.455 367.968 491.529 367.987 491.597 368.019L503.628 373.736C503.765 373.805 503.868 373.926 503.917 374.071C503.965 374.216 503.954 374.374 503.887 374.511C503.835 374.601 503.759 374.675 503.668 374.723C503.576 374.772 503.473 374.794 503.37 374.786Z" fill="white"/>
<path d="M506.616 399.608H506.39L496.281 395.151C496.142 395.087 496.034 394.973 495.977 394.832C495.92 394.691 495.919 394.533 495.974 394.391C496.037 394.253 496.152 394.146 496.294 394.091C496.436 394.037 496.593 394.04 496.733 394.101L506.842 398.493C506.912 398.522 506.974 398.564 507.027 398.616C507.08 398.669 507.122 398.732 507.151 398.801C507.179 398.87 507.194 398.944 507.194 399.019C507.193 399.094 507.178 399.167 507.149 399.236C507.107 399.344 507.034 399.437 506.94 399.503C506.845 399.57 506.732 399.606 506.616 399.608Z" fill="white"/>
<path opacity="0.7" d="M508.004 418.132C507.498 416.534 507.403 414.834 507.729 413.19C508.908 408.587 513.075 405.293 515.933 401.74C519.514 397.59 521.465 392.282 521.424 386.801C520.964 382.614 522.184 378.414 524.816 375.125C527.642 371.669 531.276 369.02 534.279 365.726C537.429 362.293 540.221 358.549 542.613 354.55C544.648 351.143 548.507 346.007 552.028 351.32C553.446 353.418 554.022 355.972 553.643 358.475C552.593 364.935 546.957 369.505 544.809 375.561C543.943 378.644 543.54 381.839 543.614 385.041C543.485 387.916 543.129 391.146 541.208 393.439C540.093 394.763 538.64 395.797 537.639 397.218C536.453 399.291 535.746 401.603 535.571 403.985C535.117 406.435 534.396 408.828 533.423 411.123C531.13 417.034 527.626 423.962 521.731 426.917C520.035 427.856 518.076 428.208 516.159 427.918C511.944 426.998 509.037 421.943 508.004 418.132Z" fill="url(#paint43_linear_203_17218)"/>
<path d="M518.26 420.409H518.05C517.91 420.351 517.798 420.241 517.738 420.103C517.677 419.964 517.673 419.807 517.727 419.666L534.91 375.771C534.966 375.63 535.075 375.516 535.215 375.456C535.354 375.395 535.512 375.392 535.653 375.448C535.794 375.504 535.908 375.613 535.968 375.752C536.029 375.892 536.032 376.049 535.976 376.191L518.793 420.086C518.744 420.185 518.668 420.267 518.573 420.325C518.479 420.382 518.37 420.411 518.26 420.409Z" fill="white"/>
<path d="M528.385 393.875C528.246 393.876 528.111 393.825 528.007 393.733C527.902 393.64 527.836 393.513 527.82 393.374L526.092 378.662C526.078 378.513 526.122 378.364 526.216 378.246C526.309 378.129 526.444 378.052 526.592 378.032C526.744 378.018 526.894 378.062 527.014 378.155C527.134 378.248 527.215 378.383 527.238 378.533L528.95 393.229C528.965 393.38 528.921 393.531 528.828 393.651C528.735 393.771 528.6 393.851 528.45 393.875H528.385Z" fill="white"/>
<path d="M526.852 399.414C526.726 399.428 526.599 399.398 526.492 399.331C526.385 399.264 526.303 399.162 526.26 399.043C526.218 398.924 526.216 398.794 526.256 398.674C526.296 398.554 526.375 398.45 526.481 398.381L537.349 391.129C537.411 391.086 537.48 391.056 537.553 391.04C537.626 391.024 537.702 391.023 537.775 391.037C537.849 391.05 537.919 391.078 537.982 391.119C538.045 391.16 538.099 391.213 538.141 391.275C538.228 391.401 538.262 391.557 538.235 391.708C538.207 391.86 538.121 391.994 537.995 392.082L527.11 399.333C527.032 399.38 526.943 399.408 526.852 399.414Z" fill="white"/>
<path d="M519.6 415.822C519.477 415.824 519.356 415.785 519.257 415.712C519.158 415.64 519.086 415.536 519.05 415.418L516.386 406.827C516.363 406.756 516.355 406.681 516.362 406.607C516.368 406.533 516.389 406.46 516.424 406.394C516.458 406.328 516.505 406.27 516.563 406.222C516.62 406.174 516.686 406.138 516.757 406.116C516.901 406.075 517.055 406.091 517.187 406.16C517.319 406.229 517.42 406.346 517.468 406.488L520.149 415.079C520.195 415.225 520.181 415.383 520.112 415.519C520.042 415.655 519.922 415.758 519.777 415.806L519.6 415.822Z" fill="white"/>
<path opacity="0.7" d="M501.561 422.686C501.665 421.529 501.482 420.364 501.028 419.294C499.542 416.339 496.183 414.708 493.761 412.721C490.714 410.429 488.607 407.105 487.834 403.371C487.685 401.929 487.254 400.53 486.564 399.256C485.873 397.981 484.939 396.855 483.812 395.942C481.39 394.004 478.515 392.712 475.996 390.936C473.349 389.061 470.898 386.924 468.68 384.556C466.807 382.554 463.432 379.615 461.8 383.7C461.162 385.342 461.162 387.163 461.8 388.804C463.415 393.067 467.953 395.264 470.311 399.123C471.356 401.091 472.101 403.203 472.524 405.39C472.867 407.436 473.871 409.313 475.382 410.735C476.335 411.478 477.482 411.962 478.37 412.786C479.481 414.022 480.303 415.489 480.776 417.082C481.443 418.681 482.283 420.203 483.279 421.62C485.718 425.302 489.109 429.485 493.551 430.631C494.842 431.027 496.228 430.981 497.491 430.502C500.204 429.307 501.416 425.447 501.561 422.686Z" fill="url(#paint44_linear_203_17218)"/>
<path d="M495.796 425.738C495.701 425.736 495.607 425.711 495.523 425.666C495.439 425.621 495.367 425.558 495.311 425.48L477.191 398.171C477.149 398.107 477.119 398.036 477.104 397.961C477.089 397.886 477.09 397.808 477.105 397.733C477.12 397.658 477.149 397.587 477.192 397.524C477.234 397.46 477.289 397.405 477.353 397.363C477.48 397.282 477.634 397.254 477.781 397.284C477.929 397.314 478.059 397.4 478.144 397.525L496.28 424.85C496.361 424.977 496.39 425.131 496.359 425.278C496.329 425.426 496.243 425.556 496.119 425.641C496.023 425.705 495.911 425.738 495.796 425.738Z" fill="white"/>
<path d="M484.975 409.185C484.832 409.186 484.693 409.133 484.586 409.038C484.478 408.943 484.41 408.811 484.394 408.668L483.409 398.429C483.4 398.354 483.406 398.277 483.428 398.204C483.449 398.131 483.485 398.063 483.533 398.004C483.582 397.945 483.641 397.897 483.709 397.862C483.776 397.827 483.85 397.805 483.926 397.799C484 397.79 484.076 397.797 484.148 397.818C484.22 397.84 484.287 397.876 484.345 397.924C484.402 397.973 484.449 398.033 484.483 398.1C484.516 398.167 484.536 398.241 484.539 398.316L485.541 408.555C485.55 408.63 485.543 408.707 485.522 408.78C485.501 408.853 485.465 408.921 485.416 408.98C485.368 409.039 485.308 409.087 485.241 409.122C485.174 409.158 485.1 409.179 485.024 409.185H484.975Z" fill="white"/>
<path d="M486.816 412.722C486.746 412.736 486.675 412.736 486.606 412.722L478.143 409.395C478.003 409.337 477.891 409.227 477.831 409.089C477.771 408.95 477.767 408.793 477.82 408.652C477.878 408.512 477.988 408.4 478.126 408.34C478.265 408.279 478.422 408.275 478.563 408.329L487.026 411.656C487.166 411.713 487.278 411.823 487.338 411.962C487.398 412.1 487.402 412.257 487.349 412.399C487.301 412.499 487.225 412.583 487.131 412.64C487.036 412.698 486.926 412.726 486.816 412.722Z" fill="white"/>
<path d="M494.181 422.815C494.107 422.809 494.034 422.788 493.968 422.754C493.902 422.72 493.843 422.673 493.795 422.616C493.747 422.559 493.71 422.493 493.688 422.422C493.666 422.35 493.657 422.276 493.664 422.201L494.213 415.968C494.217 415.892 494.236 415.819 494.27 415.752C494.303 415.684 494.35 415.624 494.408 415.576C494.465 415.528 494.532 415.491 494.604 415.47C494.676 415.448 494.752 415.442 494.827 415.451C494.978 415.463 495.119 415.534 495.218 415.649C495.318 415.764 495.369 415.913 495.36 416.064L494.795 422.298C494.789 422.373 494.768 422.445 494.734 422.511C494.699 422.578 494.652 422.636 494.595 422.684C494.538 422.732 494.472 422.769 494.401 422.791C494.33 422.814 494.255 422.822 494.181 422.815Z" fill="white"/>
<path d="M481.859 459.927H531.261L540.24 425.544H472.879L481.859 459.927Z" fill="url(#paint45_linear_203_17218)"/>
<path d="M543.437 420.312H469.697V425.544H543.437V420.312Z" fill="url(#paint46_linear_203_17218)"/>
<defs>
<linearGradient id="paint0_linear_203_17218" x1="109.85" y1="127.873" x2="109.85" y2="282.361" gradientUnits="userSpaceOnUse">
<stop stop-color="#FF0066" stop-opacity="0.83"/>
<stop offset="1" stop-color="#FF0066" stop-opacity="0"/>
</linearGradient>
<linearGradient id="paint1_linear_203_17218" x1="406.568" y1="261.286" x2="415.547" y2="261.286" gradientUnits="userSpaceOnUse">
<stop stop-color="#66A8DE"/>
<stop offset="1" stop-color="#4136EB"/>
</linearGradient>
<linearGradient id="paint2_linear_203_17218" x1="1997.24" y1="6308.66" x2="2047.17" y2="6308.66" gradientUnits="userSpaceOnUse">
<stop stop-color="#66A8DE"/>
<stop offset="1" stop-color="#4136EB"/>
</linearGradient>
<linearGradient id="paint3_linear_203_17218" x1="1934.58" y1="2520.61" x2="1960.68" y2="2520.61" gradientUnits="userSpaceOnUse">
<stop stop-color="#66A8DE"/>
<stop offset="1" stop-color="#4136EB"/>
</linearGradient>
<linearGradient id="paint4_linear_203_17218" x1="6205.32" y1="3970.81" x2="6570.63" y2="3970.81" gradientUnits="userSpaceOnUse">
<stop stop-color="#66A8DE"/>
<stop offset="1" stop-color="#4136EB"/>
</linearGradient>
<linearGradient id="paint5_linear_203_17218" x1="13330.4" y1="2228.46" x2="15272.8" y2="2228.46" gradientUnits="userSpaceOnUse">
<stop stop-color="#66A8DE"/>
<stop offset="1" stop-color="#4136EB"/>
</linearGradient>
<linearGradient id="paint6_linear_203_17218" x1="3931.48" y1="9251.54" x2="4065.66" y2="9251.54" gradientUnits="userSpaceOnUse">
<stop stop-color="#BBBAF3"/>
<stop offset="1" stop-color="#5C54AA"/>
</linearGradient>
<linearGradient id="paint7_linear_203_17218" x1="32683" y1="26330.9" x2="49019" y2="26330.9" gradientUnits="userSpaceOnUse">
<stop stop-color="#BBBAF3"/>
<stop offset="1" stop-color="#5C54AA"/>
</linearGradient>
<linearGradient id="paint8_linear_203_17218" x1="270.298" y1="261.286" x2="385.381" y2="261.286" gradientUnits="userSpaceOnUse">
<stop stop-color="#1D242C"/>
<stop offset="1" stop-color="#151619"/>
</linearGradient>
<linearGradient id="paint9_linear_203_17218" x1="357.231" y1="261.286" x2="372.396" y2="261.286" gradientUnits="userSpaceOnUse">
<stop stop-color="#8FFFFF"/>
<stop offset="1" stop-color="#66A8DE"/>
</linearGradient>
<linearGradient id="paint10_linear_203_17218" x1="3659.61" y1="3504.04" x2="3802.16" y2="3504.04" gradientUnits="userSpaceOnUse">
<stop stop-color="#8FFFFF"/>
<stop offset="1" stop-color="#66A8DE"/>
</linearGradient>
<linearGradient id="paint11_linear_203_17218" x1="-2360.33" y1="20138.4" x2="-2447.02" y2="19534.9" gradientUnits="userSpaceOnUse">
<stop stop-color="#66A8DE"/>
<stop offset="1" stop-color="#4136EB"/>
</linearGradient>
<linearGradient id="paint12_linear_203_17218" x1="-42929.1" y1="9088.31" x2="-42839.9" y2="8486.43" gradientUnits="userSpaceOnUse">
<stop stop-color="#66A8DE"/>
<stop offset="1" stop-color="#4136EB"/>
</linearGradient>
<linearGradient id="paint13_linear_203_17218" x1="11596.5" y1="12494.3" x2="12700.5" y2="12494.3" gradientUnits="userSpaceOnUse">
<stop stop-color="#66A8DE"/>
<stop offset="1" stop-color="#4136EB"/>
</linearGradient>
<linearGradient id="paint14_linear_203_17218" x1="9020.64" y1="12494.3" x2="10124.6" y2="12494.3" gradientUnits="userSpaceOnUse">
<stop stop-color="#66A8DE"/>
<stop offset="1" stop-color="#4136EB"/>
</linearGradient>
<linearGradient id="paint15_linear_203_17218" x1="26877.2" y1="57117" x2="36733" y2="57117" gradientUnits="userSpaceOnUse">
<stop stop-color="#BBBAF3"/>
<stop offset="1" stop-color="#5C54AA"/>
</linearGradient>
<linearGradient id="paint16_linear_203_17218" x1="8307.8" y1="10055.3" x2="8997.13" y2="10055.3" gradientUnits="userSpaceOnUse">
<stop stop-color="#66A8DE"/>
<stop offset="1" stop-color="#4136EB"/>
</linearGradient>
<linearGradient id="paint17_linear_203_17218" x1="5833.47" y1="6965.88" x2="6152.73" y2="6965.88" gradientUnits="userSpaceOnUse">
<stop stop-color="#8FFFFF"/>
<stop offset="1" stop-color="#66A8DE"/>
</linearGradient>
<linearGradient id="paint18_linear_203_17218" x1="22942.6" y1="10891.6" x2="29665.4" y2="10891.6" gradientUnits="userSpaceOnUse">
<stop stop-color="#1D242C"/>
<stop offset="1" stop-color="#151619"/>
</linearGradient>
<linearGradient id="paint19_linear_203_17218" x1="5592.99" y1="14544.7" x2="5884.71" y2="14544.7" gradientUnits="userSpaceOnUse">
<stop stop-color="#66A8DE"/>
<stop offset="1" stop-color="#4136EB"/>
</linearGradient>
<linearGradient id="paint20_linear_203_17218" x1="3683.75" y1="11709.1" x2="3799.88" y2="11709.1" gradientUnits="userSpaceOnUse">
<stop stop-color="#8FFFFF"/>
<stop offset="1" stop-color="#66A8DE"/>
</linearGradient>
<linearGradient id="paint21_linear_203_17218" x1="7039.87" y1="2627.07" x2="7520.7" y2="2627.07" gradientUnits="userSpaceOnUse">
<stop stop-color="#66A8DE"/>
<stop offset="1" stop-color="#4136EB"/>
</linearGradient>
<linearGradient id="paint22_linear_203_17218" x1="327.838" y1="295.636" x2="327.838" y2="412.964" gradientUnits="userSpaceOnUse">
<stop stop-color="white" stop-opacity="0"/>
<stop offset="1" stop-color="#00FFFF"/>
</linearGradient>
<linearGradient id="paint23_linear_203_17218" x1="32271.1" y1="20546.7" x2="30453.4" y2="24270.1" gradientUnits="userSpaceOnUse">
<stop stop-color="#1D242C"/>
<stop offset="1" stop-color="#151619"/>
</linearGradient>
<linearGradient id="paint24_linear_203_17218" x1="24920.8" y1="21291.8" x2="33109.7" y2="21291.8" gradientUnits="userSpaceOnUse">
<stop stop-color="#1D242C"/>
<stop offset="1" stop-color="#151619"/>
</linearGradient>
<linearGradient id="paint25_linear_203_17218" x1="3850" y1="5001.67" x2="3977.92" y2="5001.67" gradientUnits="userSpaceOnUse">
<stop stop-color="#1D242C"/>
<stop offset="1" stop-color="#151619"/>
</linearGradient>
<linearGradient id="paint26_linear_203_17218" x1="3767.52" y1="5621.22" x2="4046.36" y2="5621.22" gradientUnits="userSpaceOnUse">
<stop stop-color="#FAB143"/>
<stop offset="1" stop-color="#C1780A"/>
</linearGradient>
<linearGradient id="paint27_linear_203_17218" x1="3972.35" y1="5706.28" x2="4251.19" y2="5706.28" gradientUnits="userSpaceOnUse">
<stop stop-color="#FAB143"/>
<stop offset="1" stop-color="#C1780A"/>
</linearGradient>
<radialGradient id="paint28_radial_203_17218" cx="0" cy="0" r="1" gradientUnits="userSpaceOnUse" gradientTransform="translate(571.667 112.321) scale(3.26224)">
<stop stop-color="#2B2276"/>
<stop offset="1" stop-color="#160C55"/>
</radialGradient>
<radialGradient id="paint29_radial_203_17218" cx="0" cy="0" r="1" gradientUnits="userSpaceOnUse" gradientTransform="translate(1331.46 2392.17) scale(13.1468 13.1795)">
<stop stop-color="#2B2276"/>
<stop offset="1" stop-color="#160C55"/>
</radialGradient>
<radialGradient id="paint30_radial_203_17218" cx="0" cy="0" r="1" gradientUnits="userSpaceOnUse" gradientTransform="translate(1792.03 1046.23) scale(13.1468 13.1794)">
<stop stop-color="#2B2276"/>
<stop offset="1" stop-color="#160C55"/>
</radialGradient>
<radialGradient id="paint31_radial_203_17218" cx="0" cy="0" r="1" gradientUnits="userSpaceOnUse" gradientTransform="translate(1033.64 557.862) scale(13.1468 13.1794)">
<stop stop-color="#2B2276"/>
<stop offset="1" stop-color="#160C55"/>
</radialGradient>
<radialGradient id="paint32_radial_203_17218" cx="0" cy="0" r="1" gradientUnits="userSpaceOnUse" gradientTransform="translate(3439.68 2452.01) scale(13.1795 13.1468)">
<stop stop-color="#2B2276"/>
<stop offset="1" stop-color="#160C55"/>
</radialGradient>
<radialGradient id="paint33_radial_203_17218" cx="0" cy="0" r="1" gradientUnits="userSpaceOnUse" gradientTransform="translate(1402.22 862.521) scale(13.1795 13.1468)">
<stop stop-color="#2B2276"/>
<stop offset="1" stop-color="#160C55"/>
</radialGradient>
<linearGradient id="paint34_linear_203_17218" x1="793.045" y1="1964.61" x2="819.274" y2="1964.61" gradientUnits="userSpaceOnUse">
<stop stop-color="#4D5DEC"/>
<stop offset="0.33" stop-color="#4136EB"/>
<stop offset="1" stop-color="#420087"/>
</linearGradient>
<radialGradient id="paint35_radial_203_17218" cx="0" cy="0" r="1" gradientUnits="userSpaceOnUse" gradientTransform="translate(2129.48 353.597) scale(13.1795 13.1468)">
<stop stop-color="#2B2276"/>
<stop offset="1" stop-color="#160C55"/>
</radialGradient>
<radialGradient id="paint36_radial_203_17218" cx="0" cy="0" r="1" gradientUnits="userSpaceOnUse" gradientTransform="translate(2373.99 919.45) scale(13.1468)">
<stop stop-color="#2B2276"/>
<stop offset="1" stop-color="#160C55"/>
</radialGradient>
<linearGradient id="paint37_linear_203_17218" x1="3675.99" y1="5890.81" x2="3954.83" y2="5890.81" gradientUnits="userSpaceOnUse">
<stop stop-color="#FAB143"/>
<stop offset="1" stop-color="#C1780A"/>
</linearGradient>
<radialGradient id="paint38_radial_203_17218" cx="0" cy="0" r="1" gradientUnits="userSpaceOnUse" gradientTransform="translate(9329.3 4915.72) scale(139.42 139.42)">
<stop stop-color="#2B2276"/>
<stop offset="1" stop-color="#160C55"/>
</radialGradient>
<radialGradient id="paint39_radial_203_17218" cx="0" cy="0" r="1" gradientUnits="userSpaceOnUse" gradientTransform="translate(7423.46 5549.87) scale(139.42 139.42)">
<stop stop-color="#2B2276"/>
<stop offset="1" stop-color="#160C55"/>
</radialGradient>
<radialGradient id="paint40_radial_203_17218" cx="0" cy="0" r="1" gradientUnits="userSpaceOnUse" gradientTransform="translate(7119.04 1553.63) scale(139.42 139.42)">
<stop stop-color="#2B2276"/>
<stop offset="1" stop-color="#160C55"/>
</radialGradient>
<linearGradient id="paint41_linear_203_17218" x1="327.839" y1="459.83" x2="327.839" y2="658.391" gradientUnits="userSpaceOnUse">
<stop stop-color="#FF0066" stop-opacity="0.83"/>
<stop offset="1" stop-color="white" stop-opacity="0"/>
</linearGradient>
<linearGradient id="paint42_linear_203_17218" x1="14405.4" y1="27446.9" x2="15973.4" y2="28393.4" gradientUnits="userSpaceOnUse">
<stop stop-color="#FAB143"/>
<stop offset="1" stop-color="#420087"/>
</linearGradient>
<linearGradient id="paint43_linear_203_17218" x1="15950.7" y1="23145.9" x2="17402.8" y2="24302.4" gradientUnits="userSpaceOnUse">
<stop stop-color="#FAB143"/>
<stop offset="1" stop-color="#420087"/>
</linearGradient>
<linearGradient id="paint44_linear_203_17218" x1="13916.3" y1="14596" x2="14840" y2="15623.9" gradientUnits="userSpaceOnUse">
<stop stop-color="#FAB143"/>
<stop offset="1" stop-color="#420087"/>
</linearGradient>
<linearGradient id="paint45_linear_203_17218" x1="24767.1" y1="12041" x2="24767.1" y2="11336.2" gradientUnits="userSpaceOnUse">
<stop stop-color="#5E5797"/>
<stop offset="0.83" stop-color="#3F367A"/>
</linearGradient>
<linearGradient id="paint46_linear_203_17218" x1="25381.8" y1="2064.37" x2="28748.1" y2="2064.37" gradientUnits="userSpaceOnUse">
<stop stop-color="#BBBAF3"/>
<stop offset="1" stop-color="#5C54AA"/>
</linearGradient>
</defs>
</svg>
