<svg width="22" height="22" viewBox="0 0 22 22" fill="none" xmlns="http://www.w3.org/2000/svg">
<path d="M16.7933 11.6875H13.75C11.4675 11.6875 10.3125 10.395 10.3125 7.83748V5.20665C10.3125 4.27165 10.4225 2.93332 11.3942 2.19998C12.21 1.59498 13.3833 1.54915 15.1158 2.05332C17.3892 2.71332 19.2867 4.61082 19.9467 6.88415C20.4508 8.60748 20.405 9.78998 19.8 10.5967C19.0667 11.5775 17.7283 11.6875 16.7933 11.6875ZM13.09 3.07998C12.7142 3.07998 12.4208 3.15332 12.2283 3.29998C11.8708 3.56582 11.6967 4.18915 11.6967 5.20665V7.84665C11.6967 9.89998 12.485 10.3217 13.7592 10.3217H16.8025C17.8108 10.3217 18.4342 10.1475 18.7092 9.78998C19.03 9.36832 19.0025 8.52498 18.645 7.28748C18.1133 5.48165 16.555 3.91415 14.7492 3.39165C14.0708 3.18082 13.5208 3.07998 13.09 3.07998Z" fill="#31475C"/>
<path d="M10.1475 20.8542C9.66168 20.8542 9.16668 20.8175 8.67168 20.735C4.92252 20.13 1.87001 17.0867 1.26501 13.3375C0.485848 8.51584 3.59335 3.96918 8.35085 2.99751C8.72668 2.92418 9.08418 3.16251 9.16668 3.52918C9.24002 3.90501 9.00168 4.26251 8.63502 4.34501C4.61085 5.17001 1.97085 9.02001 2.64001 13.1175C3.15335 16.2892 5.72918 18.865 8.90085 19.3783C13.0167 20.0383 16.8575 17.3892 17.6734 13.3467C17.7467 12.9708 18.1133 12.7325 18.48 12.8058C18.8558 12.8792 19.0942 13.2458 19.0208 13.6125C18.15 17.8933 14.41 20.8542 10.1475 20.8542Z" fill="#31475C"/>
</svg>
