<svg width="22" height="22" viewBox="0 0 22 22" fill="none" xmlns="http://www.w3.org/2000/svg">
<path d="M20.1665 5.50001V7.71834C20.1665 9.16668 19.2498 10.0833 17.8015 10.0833H14.6665V3.67584C14.6665 2.65834 15.5007 1.83334 16.5182 1.83334C17.5174 1.84251 18.434 2.24584 19.094 2.90584C19.754 3.57501 20.1665 4.49168 20.1665 5.50001Z" stroke="#31475C" stroke-width="1.5" stroke-miterlimit="10" stroke-linecap="round" stroke-linejoin="round"/>
<path d="M1.8335 6.41668V19.25C1.8335 20.0108 2.69514 20.4417 3.30014 19.9833L4.86766 18.81C5.23433 18.535 5.74767 18.5717 6.07767 18.9017L7.59931 20.4325C7.95681 20.79 8.54352 20.79 8.90102 20.4325L10.441 18.8925C10.7618 18.5717 11.2752 18.535 11.6327 18.81L13.2002 19.9833C13.8052 20.4325 14.6668 20.0017 14.6668 19.25V3.66668C14.6668 2.65834 15.4918 1.83334 16.5002 1.83334H6.41683H5.50016C2.75016 1.83334 1.8335 3.47418 1.8335 5.50001V6.41668Z" stroke="#31475C" stroke-width="1.5" stroke-miterlimit="10" stroke-linecap="round" stroke-linejoin="round"/>
<path d="M5.5 8.25H11" stroke="#31475C" stroke-width="1.5" stroke-linecap="round" stroke-linejoin="round"/>
<path d="M6.1875 11.9167H10.3125" stroke="#31475C" stroke-width="1.5" stroke-linecap="round" stroke-linejoin="round"/>
</svg>
