<svg width="20" height="20" viewBox="0 0 20 20" fill="none" xmlns="http://www.w3.org/2000/svg">
<path d="M3.7 8.2H5.5C7.3 8.2 8.2 7.3 8.2 5.5V3.7C8.2 1.9 7.3 1 5.5 1H3.7C1.9 1 1 1.9 1 3.7V5.5C1 7.3 1.9 8.2 3.7 8.2Z" stroke="#31475C" stroke-width="1.4" stroke-miterlimit="10" stroke-linecap="round" stroke-linejoin="round"/>
<path d="M14.4998 8.2H16.2998C18.0998 8.2 18.9998 7.3 18.9998 5.5V3.7C18.9998 1.9 18.0998 1 16.2998 1H14.4998C12.6998 1 11.7998 1.9 11.7998 3.7V5.5C11.7998 7.3 12.6998 8.2 14.4998 8.2Z" stroke="#31475C" stroke-width="1.4" stroke-miterlimit="10" stroke-linecap="round" stroke-linejoin="round"/>
<path d="M14.4998 19.0008H16.2998C18.0998 19.0008 18.9998 18.1008 18.9998 16.3008V14.5008C18.9998 12.7008 18.0998 11.8008 16.2998 11.8008H14.4998C12.6998 11.8008 11.7998 12.7008 11.7998 14.5008V16.3008C11.7998 18.1008 12.6998 19.0008 14.4998 19.0008Z" stroke="#31475C" stroke-width="1.4" stroke-miterlimit="10" stroke-linecap="round" stroke-linejoin="round"/>
<path d="M3.7 19.0008H5.5C7.3 19.0008 8.2 18.1008 8.2 16.3008V14.5008C8.2 12.7008 7.3 11.8008 5.5 11.8008H3.7C1.9 11.8008 1 12.7008 1 14.5008V16.3008C1 18.1008 1.9 19.0008 3.7 19.0008Z" stroke="#31475C" stroke-width="1.4" stroke-miterlimit="10" stroke-linecap="round" stroke-linejoin="round"/>
</svg>
