<svg width="20" height="16" viewBox="0 0 20 16" fill="none" xmlns="http://www.w3.org/2000/svg">
<path d="M16.788 8.3392V7.2C16.788 5.29044 16.0295 3.45909 14.6792 2.10883C13.329 0.758569 11.4976 0 9.58805 0C7.67849 0 5.84714 0.758569 4.49688 2.10883C3.14662 3.45909 2.38805 5.29044 2.38805 7.2V8.3392C1.54897 8.70867 0.862287 9.35516 0.442944 10.1705C0.0236005 10.9857 -0.102945 11.9203 0.0844925 12.8178C0.27193 13.7152 0.761972 14.5211 1.47258 15.1004C2.18319 15.6797 3.07124 15.9973 3.98805 16C4.41239 16 4.81936 15.8314 5.11942 15.5314C5.41948 15.2313 5.58805 14.8243 5.58805 14.4V9.6C5.58805 9.17565 5.41948 8.76869 5.11942 8.46863C4.81936 8.16857 4.41239 8 3.98805 8V7.2C3.98805 5.71479 4.57804 4.29041 5.62825 3.2402C6.67845 2.19 8.10283 1.6 9.58805 1.6C11.0733 1.6 12.4976 2.19 13.5478 3.2402C14.598 4.29041 15.188 5.71479 15.188 7.2V8C14.7637 8 14.3567 8.16857 14.0567 8.46863C13.7566 8.76869 13.588 9.17565 13.588 9.6V14.4C13.588 14.8243 13.7566 15.2313 14.0567 15.5314C14.3567 15.8314 14.7637 16 15.188 16C16.1049 15.9973 16.9929 15.6797 17.7035 15.1004C18.4141 14.5211 18.9042 13.7152 19.0916 12.8178C19.279 11.9203 19.1525 10.9857 18.7332 10.1705C18.3138 9.35516 17.6271 8.70867 16.788 8.3392ZM3.98805 14.4C3.35153 14.4 2.74108 14.1471 2.29099 13.6971C1.8409 13.247 1.58805 12.6365 1.58805 12C1.58805 11.3635 1.8409 10.753 2.29099 10.3029C2.74108 9.85286 3.35153 9.6 3.98805 9.6V14.4ZM15.188 14.4V9.6C15.8246 9.6 16.435 9.85286 16.8851 10.3029C17.3352 10.753 17.588 11.3635 17.588 12C17.588 12.6365 17.3352 13.247 16.8851 13.6971C16.435 14.1471 15.8246 14.4 15.188 14.4Z" fill="#31475C"/>
</svg>
